<?xml version="1.0" encoding="utf-8"?>
<!-- Generator: Adobe Illustrator 16.0.0, SVG Export Plug-In . SVG Version: 6.00 Build 0)  -->
<!DOCTYPE svg PUBLIC "-//W3C//DTD SVG 1.1//EN" "http://www.w3.org/Graphics/SVG/1.1/DTD/svg11.dtd">
<svg version="1.1" id="Layer_1" xmlns="http://www.w3.org/2000/svg" xmlns:xlink="http://www.w3.org/1999/xlink" x="0px" y="0px"
	 width="503.92px" height="280.128px" viewBox="0 0 503.92 280.128" enable-background="new 0 0 503.92 280.128"
	 xml:space="preserve">
<g>
	<path fill="#CCCCCC" d="M502.171,135.34C441.819,47.443,358.085,2.977,251.962,0c-21.73-0.01-43.103,2.154-64.079,6.992
		C108.825,25.227,46.837,68.322,1.623,135.67c-2.037,3.033-2.227,5.143-0.168,8.34c67.619,105.021,196.76,157.332,318.757,128.07
		c77.197-18.516,137.719-61.594,181.982-127.545C504.499,141.102,504.499,138.73,502.171,135.34z M42.665,140.035
		c99.039-135.359,310.559-143.174,418.793-0.15C355.724,279.158,147.524,278.562,42.665,140.035z"/>
	<path fill="#CCCCCC" d="M252.216,69.621c-15.299-0.012-29.45,4.838-41.018,13.062c11.91,7.761,19.789,21.188,19.789,36.462
		c0,24.025-19.475,43.5-43.5,43.5c-0.74,0-1.476-0.02-2.207-0.056c9.428,27.843,35.749,47.911,66.734,47.905
		c38.686-0.01,70.322-31.506,70.404-70.094C322.501,101.379,291.032,69.65,252.216,69.621z"/>
</g>
</svg>
