<?xml version="1.0" encoding="utf-8"?>
<!-- Generator: Adobe Illustrator 16.0.0, SVG Export Plug-In . SVG Version: 6.00 Build 0)  -->
<!DOCTYPE svg PUBLIC "-//W3C//DTD SVG 1.1//EN" "http://www.w3.org/Graphics/SVG/1.1/DTD/svg11.dtd">
<svg version="1.1" id="Layer_1" xmlns="http://www.w3.org/2000/svg" xmlns:xlink="http://www.w3.org/1999/xlink" x="0px" y="0px"
	 width="136.925px" height="136.925px" viewBox="0 0 136.925 136.925" enable-background="new 0 0 136.925 136.925"
	 xml:space="preserve">
<g id="kD7XIL.tif">
	<g>
		<path fill="#B45649" d="M80.75,99.408c2.43-0.443,4.668-0.74,6.853-1.277c2.248-0.553,4.503-1.18,6.646-2.049
			c9.692-3.936,14.655-11.506,16.19-21.576c0.774-5.096,1.026-10.206-0.407-15.25c-0.996-3.505-2.675-6.661-5.062-9.411
			c-0.591-0.68-0.694-1.242-0.433-2.105c1.586-5.198,1.104-10.321-0.672-15.392c-0.299-0.852-0.781-1.291-1.619-1.115
			c-2.517,0.527-5.139,0.823-7.49,1.772c-2.967,1.196-5.688,2.983-8.561,4.433c-0.632,0.319-1.496,0.553-2.15,0.395
			c-10.418-2.526-20.812-2.525-31.23,0.001c-0.653,0.159-1.557-0.046-2.145-0.406c-4.385-2.688-8.834-5.195-14.004-6.059
			c-0.052-0.009-0.103-0.024-0.155-0.033c-2.87-0.462-3.202-0.274-4.012,2.515c-1.37,4.719-1.598,9.448-0.127,14.207
			c0.136,0.44-0.01,1.164-0.31,1.511c-5.96,6.916-7.081,15.04-5.792,23.679c0.448,3.004,1.159,6.039,2.251,8.864
			c3.371,8.729,10.274,13.392,19.015,15.664c2.697,0.702,5.468,1.121,8.147,1.658c-0.883,1.594-1.8,3.209-2.67,4.851
			c-0.245,0.459-0.5,0.991-0.497,1.489c0.011,2.363-1.57,2.983-3.465,3.49c-7.039,1.88-12.427-0.179-16.332-6.351
			c-2.171-3.435-4.987-6.037-9.097-6.83c-1.048-0.203-2.207-0.08-3.271,0.121c-1.136,0.215-1.296,1.029-0.571,1.877
			c0.51,0.594,1.104,1.168,1.771,1.565c3.566,2.138,5.833,5.345,7.354,9.079c2.487,6.104,7.276,8.881,13.518,9.341
			c3.024,0.226,6.094-0.177,9.384-0.305c0,1.758-0.005,3.739,0.001,5.728c0.006,1.85,0.027,3.697,0.038,5.549
			c0.018,3.262-1.966,4.705-5.103,3.646c-7.016-2.369-13.52-5.752-19.299-10.377C9.593,108.021,0.686,89.386,1.835,66.557
			c1.517-30.127,22.9-54.643,52.499-61.119c32.438-7.097,65.397,10.947,76.845,42.07c12.729,34.603-5.898,73.402-40.87,85.13
			c-3.341,1.121-5.281-0.236-5.278-3.717c0.006-5.127-0.021-10.256,0.057-15.383S84.625,103.498,80.75,99.408z"/>
		<path fill="#B45649" d="M44.925,110.685c0.592,0.529,0.984,0.879,1.376,1.23c-0.507,0.35-0.986,0.898-1.532,0.979
			c-0.358,0.052-0.815-0.581-1.228-0.907C43.948,111.605,44.354,111.223,44.925,110.685z"/>
		<path fill="#B45649" d="M36.593,108.64c-0.734,0.509-1.204,0.99-1.349,0.906c-0.573-0.328-1.075-0.811-1.513-1.312
			c-0.054-0.062,0.574-0.908,0.662-0.869C35.036,107.64,35.621,108.048,36.593,108.64z"/>
		<path fill="#B45649" d="M39.636,112.49c-0.602-0.596-1.041-1.029-1.479-1.463c0.357-0.285,0.83-0.879,1.051-0.797
			c0.604,0.225,1.101,0.734,1.641,1.13C40.512,111.673,40.175,111.987,39.636,112.49z"/>
		<path fill="#B45649" d="M50.16,110.064c0.536,0.502,0.881,0.824,1.227,1.146c-0.554,0.381-1.067,0.889-1.68,1.078
			c-0.246,0.072-0.708-0.554-1.072-0.857C49.095,111.018,49.556,110.605,50.16,110.064z"/>
		<path fill="#B45649" d="M31.253,103.003c0.589,0.861,1.013,1.336,1.236,1.891c0.075,0.188-0.362,0.58-0.565,0.878
			c-0.461-0.468-0.979-0.896-1.346-1.429C30.483,104.208,30.866,103.744,31.253,103.003z"/>
		<path fill="#B45649" d="M28.627,99.718c0.521,0.732,0.885,1.188,1.153,1.691c0.032,0.061-0.611,0.606-0.666,0.564
			c-0.419-0.314-0.826-0.688-1.105-1.128C27.929,100.725,28.284,100.324,28.627,99.718z"/>
	</g>
</g>
</svg>
