<?xml version="1.0" encoding="utf-8"?>
<!-- Generator: Adobe Illustrator 16.0.0, SVG Export Plug-In . SVG Version: 6.00 Build 0)  -->
<!DOCTYPE svg PUBLIC "-//W3C//DTD SVG 1.1//EN" "http://www.w3.org/Graphics/SVG/1.1/DTD/svg11.dtd">
<svg version="1.1" id="Layer_1" xmlns="http://www.w3.org/2000/svg" xmlns:xlink="http://www.w3.org/1999/xlink" x="0px" y="0px"
	 width="112.594px" height="112.546px" viewBox="0 0 112.594 112.546" enable-background="new 0 0 112.594 112.546"
	 xml:space="preserve">
<g id="dJh6tX.tif">
	<g>
		<path fill="#B45649" d="M56.167,112.524c-11.692-0.002-23.383,0.032-35.075-0.017c-5.837-0.024-10.885-2.196-14.966-6.32
			C2.274,102.294,0.118,97.481,0.1,91.99C0.022,68.175-0.105,44.36,0.156,20.549c0.095-8.661,4.546-15.06,12.59-18.697
			C15.564,0.578,18.525-0.002,21.625,0c23.096,0.015,46.191-0.021,69.287,0.024c8.225,0.017,14.614,3.521,18.848,10.636
			c1.72,2.89,2.765,6.103,2.771,9.477c0.05,24.006,0.126,48.012-0.034,72.017c-0.057,8.491-5.655,16.461-14.253,19.09
			c-2.429,0.742-5.042,1.198-7.576,1.227C79.167,112.597,67.667,112.526,56.167,112.524z M60.706,43.373
			c-0.411-0.102-0.638-0.207-0.864-0.208c-5.222-0.016-10.442-0.008-15.664-0.039c-1.181-0.006-1.133,0.767-1.131,1.555
			c0.005,3.305,0.017,6.61,0.021,9.916c0.016,12.981,0.027,25.963,0.047,38.944c0.003,2.039,0.025,2.045,1.96,2.045
			c4.551,0,9.102,0,13.651-0.002c1.975-0.002,1.99-0.004,1.99-1.943c0.008-9.485-0.037-18.971,0.031-28.454
			c0.035-4.843,3.751-10.25,10.04-9.574c2.589,0.278,4.417,1.437,5.63,3.716c1.243,2.336,1.26,4.858,1.262,7.389
			c0.006,8.91,0,17.82,0.004,26.729c0,2.017,0.143,2.151,2.096,2.149c4.502-0.002,9.005-0.004,13.508,0
			c2.096,0,2.281-0.178,2.282-2.291c0.002-7.807,0.126-15.618-0.044-23.422c-0.096-4.373-0.354-8.795-1.135-13.086
			c-0.818-4.504-3.057-8.465-6.951-11.174c-4.305-2.994-9.045-3.983-14.297-3.288c-4.742,0.628-8.366,2.806-11.184,6.552
			c-0.252,0.336-0.615,0.588-1.252,1.181C60.706,47.539,60.706,45.454,60.706,43.373z M17.396,69.341c0.016,0,0.031,0,0.047,0
			c0,8.189,0.021,16.381-0.021,24.57c-0.006,1.282,0.342,1.74,1.706,1.717c4.645-0.086,9.292-0.029,13.938-0.033
			c1.734-0.002,1.903-0.178,1.901-1.898c-0.016-13.794-0.031-27.589-0.049-41.384c-0.003-2.576-0.001-5.152-0.042-7.728
			c-0.017-1.023-0.533-1.475-1.642-1.463c-4.646,0.05-9.292,0.015-13.938,0.021c-1.905,0.002-1.899,0.016-1.899,1.914
			C17.397,53.151,17.396,61.246,17.396,69.341z M25.74,18.551c-1.34,0.291-2.74,0.423-4.011,0.898
			c-5.564,2.08-6.734,8.185-4.322,12.577c1.906,3.472,6.958,5.23,11.851,3.702c5.852-1.828,7.279-8.265,4.775-12.68
			C32.232,19.873,29.277,18.752,25.74,18.551z"/>
	</g>
</g>
</svg>
