<?xml version="1.0" encoding="utf-8"?>
<!-- Generator: Adobe Illustrator 16.0.0, SVG Export Plug-In . SVG Version: 6.00 Build 0)  -->
<!DOCTYPE svg PUBLIC "-//W3C//DTD SVG 1.1//EN" "http://www.w3.org/Graphics/SVG/1.1/DTD/svg11.dtd">
<svg version="1.1" id="Layer_1" xmlns="http://www.w3.org/2000/svg" xmlns:xlink="http://www.w3.org/1999/xlink" x="0px" y="0px"
	 width="112.594px" height="112.546px" viewBox="-544.367 -318.588 112.594 112.546"
	 enable-background="new -544.367 -318.588 112.594 112.546" xml:space="preserve">
<g id="dJh6tX.tif">
	<g>
		<path fill-rule="evenodd" clip-rule="evenodd" fill="#FFFFFF" d="M-488.199-206.064c-11.692-0.002-23.383,0.032-35.075-0.017
			c-5.837-0.024-10.885-2.196-14.966-6.32c-3.852-3.892-6.008-8.706-6.026-14.197c-0.078-23.814-0.205-47.63,0.056-71.441
			c0.095-8.661,4.546-15.06,12.59-18.697c2.818-1.274,5.779-1.854,8.879-1.852c23.096,0.015,46.191-0.021,69.287,0.024
			c8.224,0.017,14.614,3.521,18.847,10.636c1.72,2.89,2.765,6.103,2.772,9.477c0.05,24.006,0.126,48.012-0.034,72.017
			c-0.057,8.491-5.655,16.461-14.253,19.09c-2.429,0.742-5.042,1.198-7.577,1.227C-465.199-205.99-476.699-206.062-488.199-206.064z
			 M-483.66-275.215c-0.412-0.102-0.638-0.207-0.865-0.208c-5.221-0.016-10.442-0.008-15.663-0.039
			c-1.181-0.006-1.133,0.767-1.131,1.555c0.005,3.305,0.017,6.61,0.021,9.916c0.016,12.981,0.027,25.963,0.047,38.944
			c0.003,2.039,0.025,2.044,1.96,2.044c4.551,0,9.102,0,13.652-0.002c1.974-0.001,1.989-0.003,1.99-1.943
			c0.008-9.485-0.037-18.97,0.031-28.454c0.035-4.843,3.751-10.25,10.04-9.574c2.589,0.278,4.417,1.437,5.63,3.716
			c1.243,2.335,1.259,4.858,1.261,7.389c0.007,8.91,0.001,17.82,0.004,26.729c0.001,2.016,0.143,2.151,2.096,2.15
			c4.502-0.002,9.005-0.004,13.508-0.001c2.095,0.001,2.281-0.178,2.282-2.29c0.002-7.808,0.126-15.619-0.044-23.423
			c-0.095-4.373-0.354-8.794-1.134-13.085c-0.819-4.505-3.057-8.466-6.952-11.175c-4.304-2.994-9.044-3.983-14.296-3.288
			c-4.743,0.628-8.367,2.806-11.184,6.552c-0.252,0.336-0.616,0.588-1.252,1.181C-483.66-271.049-483.66-273.134-483.66-275.215z
			 M-526.97-249.247c0.016,0,0.031,0,0.047,0c0,8.19,0.021,16.381-0.021,24.571c-0.006,1.282,0.342,1.74,1.706,1.716
			c4.645-0.085,9.292-0.029,13.938-0.033c1.734-0.001,1.903-0.177,1.901-1.898c-0.016-13.794-0.031-27.589-0.049-41.384
			c-0.003-2.576-0.001-5.152-0.042-7.728c-0.017-1.023-0.533-1.475-1.642-1.463c-4.646,0.05-9.292,0.015-13.938,0.021
			c-1.905,0.002-1.899,0.015-1.899,1.914C-526.969-265.437-526.97-257.342-526.97-249.247z M-518.626-300.037
			c-1.34,0.291-2.74,0.423-4.011,0.898c-5.564,2.08-6.734,8.185-4.322,12.577c1.906,3.472,6.958,5.23,11.851,3.702
			c5.852-1.828,7.279-8.265,4.775-12.68C-512.134-298.715-515.089-299.836-518.626-300.037z"/>
	</g>
</g>
</svg>
