<?xml version="1.0" encoding="utf-8"?>
<!-- Generator: Adobe Illustrator 16.0.0, SVG Export Plug-In . SVG Version: 6.00 Build 0)  -->
<!DOCTYPE svg PUBLIC "-//W3C//DTD SVG 1.1//EN" "http://www.w3.org/Graphics/SVG/1.1/DTD/svg11.dtd">
<svg version="1.1" id="Layer_1" xmlns="http://www.w3.org/2000/svg" xmlns:xlink="http://www.w3.org/1999/xlink" x="0px" y="0px"
	 width="90.281px" height="82.414px" viewBox="83.714 21.221 90.281 82.414" enable-background="new 83.714 21.221 90.281 82.414"
	 xml:space="preserve">
<g>
	<path fill="#B45649" d="M157.995,21.221h-50.414c-8.822,0-16,7.178-16,16v3.198h12v-3.198c0-2.206,1.794-4,4-4h50.414
		c2.206,0,4,1.794,4,4v50.414c0,2.206-1.794,4-4,4h-50.414c-2.206,0-4-1.794-4-4v-2.216h-12v2.216c0,8.822,7.178,16,16,16h50.414
		c8.822,0,16-7.178,16-16V37.221C173.995,28.398,166.817,21.221,157.995,21.221z"/>
	<polygon fill="#B45649" points="129.381,46.432 124.614,43.05 124.614,53.752 83.714,53.752 83.714,72.085 124.614,72.085 
		124.614,82.12 129.381,78.738 152.148,62.585 	"/>
</g>
</svg>
