<?xml version="1.0" encoding="utf-8"?>
<!-- Generator: Adobe Illustrator 16.0.0, SVG Export Plug-In . SVG Version: 6.00 Build 0)  -->
<!DOCTYPE svg PUBLIC "-//W3C//DTD SVG 1.1//EN" "http://www.w3.org/Graphics/SVG/1.1/DTD/svg11.dtd">
<svg version="1.1" id="Layer_1" xmlns="http://www.w3.org/2000/svg" xmlns:xlink="http://www.w3.org/1999/xlink" x="0px" y="0px"
	 width="90.281px" height="82.414px" viewBox="0 0 90.281 82.414" enable-background="new 0 0 90.281 82.414" xml:space="preserve">
<g>
	<path fill="#B45649" d="M74.281,0H23.867c-8.822,0-16,7.178-16,16v3.198h12V16c0-2.206,1.794-4,4-4h50.414c2.206,0,4,1.794,4,4
		v50.414c0,2.206-1.794,4-4,4H23.867c-2.206,0-4-1.794-4-4v-2.216h-12v2.216c0,8.822,7.178,16,16,16h50.414c8.821,0,16-7.178,16-16
		V16C90.281,7.177,83.103,0,74.281,0z"/>
	<polygon fill="#B45649" points="45.667,25.211 40.899,21.829 40.899,32.531 0,32.531 0,50.864 40.899,50.864 40.899,60.899 
		45.667,57.518 68.435,41.364 	"/>
</g>
</svg>
