<?xml version="1.0" encoding="utf-8"?>
<!-- Generator: Adobe Illustrator 16.0.0, SVG Export Plug-In . SVG Version: 6.00 Build 0)  -->
<!DOCTYPE svg PUBLIC "-//W3C//DTD SVG 1.1//EN" "http://www.w3.org/Graphics/SVG/1.1/DTD/svg11.dtd">
<svg version="1.1" id="Layer_1" xmlns="http://www.w3.org/2000/svg" xmlns:xlink="http://www.w3.org/1999/xlink" x="0px" y="0px"
	 width="90.281px" height="82.414px" viewBox="0 0 90.281 82.414" enable-background="new 0 0 90.281 82.414" xml:space="preserve">
<g>
	<path fill="#B45649" d="M18,81.414h50.414c8.822,0,16-7.178,16-16v-3.197h-12v3.197c0,2.206-1.794,4-4,4H18c-2.206,0-4-1.794-4-4
		V15c0-2.206,1.794-4,4-4h50.414c2.206,0,4,1.794,4,4v2.216h12V15c0-8.822-7.178-16-16-16H18C9.179-1,2,6.178,2,15v50.414
		C2,74.237,9.179,81.414,18,81.414z"/>
	<polygon fill="#B45649" points="69.515,23.9 64.746,20.518 64.746,31.221 23.847,31.219 23.847,49.553 64.746,49.553 
		64.746,59.588 69.515,56.207 92.281,40.053 	"/>
</g>
</svg>
