<?xml version="1.0" encoding="utf-8"?>
<!-- Generator: Adobe Illustrator 16.0.0, SVG Export Plug-In . SVG Version: 6.00 Build 0)  -->
<!DOCTYPE svg PUBLIC "-//W3C//DTD SVG 1.1//EN" "http://www.w3.org/Graphics/SVG/1.1/DTD/svg11.dtd">
<svg version="1.1" id="Layer_1" xmlns="http://www.w3.org/2000/svg" xmlns:xlink="http://www.w3.org/1999/xlink" x="0px" y="0px"
	 width="90.281px" height="82.414px" viewBox="83.714 21.221 90.281 82.414" enable-background="new 83.714 21.221 90.281 82.414"
	 xml:space="preserve">
<g>
	<path fill="#FFFFFF" d="M99.714,103.635h50.414c8.822,0,16-7.178,16-16v-3.197h-12v3.197c0,2.206-1.794,4-4,4H99.714
		c-2.206,0-4-1.794-4-4V37.221c0-2.206,1.794-4,4-4h50.414c2.206,0,4,1.794,4,4v2.216h12v-2.216c0-8.822-7.178-16-16-16H99.714
		c-8.821,0-16,7.178-16,16v50.414C83.714,96.458,90.893,103.635,99.714,103.635z"/>
	<polygon fill="#FFFFFF" points="151.228,46.121 146.46,42.738 146.46,53.441 105.561,53.44 105.561,71.773 146.46,71.773 
		146.46,81.809 151.228,78.428 173.995,62.273 	"/>
</g>
</svg>
