<?xml version="1.0" encoding="utf-8"?>
<!-- Generator: Adobe Illustrator 16.0.0, SVG Export Plug-In . SVG Version: 6.00 Build 0)  -->
<!DOCTYPE svg PUBLIC "-//W3C//DTD SVG 1.1//EN" "http://www.w3.org/Graphics/SVG/1.1/DTD/svg11.dtd">
<svg version="1.1" id="Layer_1" xmlns="http://www.w3.org/2000/svg" xmlns:xlink="http://www.w3.org/1999/xlink" x="0px" y="0px"
	 width="136.925px" height="136.925px" viewBox="0 0 136.925 136.925" enable-background="new 0 0 136.925 136.925"
	 xml:space="preserve">
<g>
	<polygon fill="#FFFFFF" points="49.103,29.497 24.869,68.094 38.534,68.094 49.103,50.255 59.675,68.094 73.339,68.094 	"/>
	<polygon fill="#FFFFFF" points="95.832,71.276 85.263,89.115 74.692,71.276 61.026,71.276 85.263,109.873 109.498,71.276 	"/>
	<path fill="#FFFFFF" d="M68.463,0C30.712,0,0,30.712,0,68.462c0,37.75,30.712,68.461,68.463,68.461
		c37.75,0,68.462-30.711,68.462-68.461C136.925,30.712,106.212,0,68.463,0z M68.463,123.925C37.88,123.925,13,99.044,13,68.462
		C13,37.88,37.88,13,68.463,13c30.582,0,55.462,24.88,55.462,55.462C123.925,99.044,99.044,123.925,68.463,123.925z"/>
</g>
</svg>
