<?xml version="1.0" encoding="utf-8"?>
<!-- Generator: Adobe Illustrator 16.0.0, SVG Export Plug-In . SVG Version: 6.00 Build 0)  -->
<!DOCTYPE svg PUBLIC "-//W3C//DTD SVG 1.1//EN" "http://www.w3.org/Graphics/SVG/1.1/DTD/svg11.dtd">
<svg version="1.1" id="Layer_1" xmlns="http://www.w3.org/2000/svg" xmlns:xlink="http://www.w3.org/1999/xlink" x="0px" y="0px"
	 width="157.096px" height="233.836px" viewBox="0 0 157.096 233.836" enable-background="new 0 0 157.096 233.836"
	 xml:space="preserve">
<g>
	<path fill="#FFFFFF" d="M0,58.46c2.472,18.86,4.884,37.281,7.371,56.27c0.025-0.081,0.043-0.14,0.067-0.216l4.69,34.846h0.001
		c2.668,20.078,5.687,40.12,7.474,60.273c0.995,11.229,5.211,17.595,16.208,19.433c0.812,0.136,1.598,0.442,2.4,0.647
		c17.63,4.509,35.612,4.471,53.583,3.787c12.824-0.488,25.493-2.235,37.525-7.232c3.867-1.605,6.432-3.844,6.993-8.193
		c2.707-20.984,5.462-41.963,8.205-62.941h0.003l2.892-22.061c0.164-0.396,0.286-0.802,0.337-1.195
		c1.826-13.887,3.492-27.792,5.244-41.688c1.325-10.508,2.711-21.009,4.099-31.73C104.459,58.46,52.468,58.46,0,58.46z
		 M48.223,213.2c-4.438,0.43-7.334-1.924-7.845-6.998c-2.062-20.511-4.055-41.029-5.92-61.558c-0.297-3.272-0.566-6.55-0.826-9.827
		l0,0v-0.006c-0.718-9.094-1.339-18.196-2.141-27.283c-0.58-6.581-1.572-13.126-2.293-19.696c-0.585-5.326,1.672-8.714,5.995-9.236
		c4.292-0.518,7.085,2.065,7.812,7.23l-0.221-0.021l2.5,26.16c0.467,6.776,1.08,13.545,1.938,20.28l4.26,44.582h0.27
		c0.887,9.389,1.768,18.778,2.572,28.176C54.73,209.743,52.24,212.81,48.223,213.2z M80.067,213.053
		c-4.918,1.232-8.548-1.883-8.568-7.493c-0.037-10.017-0.048-20.034-0.051-30.052v-51.282c0.007-0.024,0.033-0.052,0.031-0.075
		c-0.007-0.074-0.023-0.148-0.031-0.225v-10.808c0.08-0.219,0.122-0.431,0.077-0.624c-0.016-0.062-0.052-0.131-0.077-0.197V88.566
		c0.006-0.81,0.013-1.622,0.022-2.435c0.053-4.685,2.688-7.537,6.735-7.605c3.944-0.066,6.742,2.619,6.804,6.924
		c0.111,7.793,0.032,15.588,0.032,23.849c0.008,0,0.016,0,0.023-0.001v5.881c-0.213,1.612-0.192,3.385-0.256,4.962
		c-0.188,4.648-0.014,9.312,0.047,13.97c0.002,0.201,0.058,0.403,0.209,0.634v6.096c-0.009,0.382-0.006,0.768,0,1.146v4.163
		l0.011,0.001c-0.026,19.607-0.028,39.215,0.028,58.823C85.116,208.815,84.242,212.004,80.067,213.053z M118.854,188.411
		c-0.513,5.797-1.062,11.592-1.729,17.373c-0.62,5.358-3.462,7.898-8.023,7.428c-4.165-0.43-6.423-3.59-5.957-8.737
		c1.659-18.374,3.375-36.743,5.072-55.113h0.001l1.416-14.88c1.139-1.289,1.022-2.631,0.375-3.936l0.32-3.366
		c0.133,0.062,0.263,0.12,0.404,0.185c0-1.443-0.008-2.854-0.018-4.25l2.483-26.104h-0.004c0.396-3.917,0.761-7.839,1.228-11.747
		c0.58-4.851,3.273-7.103,7.575-6.648c4.088,0.431,6.568,3.52,6.38,8.054c-0.143,3.445-0.225,6.897-0.362,10.344l-1.936,17.75
		c-0.62,3.245-1.261,6.489-1.573,9.765c-0.876,9.186-1.692,18.377-2.497,27.57l-0.021,0.193h0.004
		C120.94,164.331,119.917,176.374,118.854,188.411z"/>
	<path fill="#FFFFFF" d="M156.728,44.751c0.538-5.988-2.486-8.553-7.177-9.688c-13.396-3.244-26.753-6.678-40.238-9.497
		c-3.984-0.833-5.741-1.955-6.585-6.193C100.396,7.647,90.612,0.081,78.786,0C67.053-0.08,57.052,7.473,54.699,19.153
		c-0.907,4.501-2.763,6.271-7.006,6.336c-1.148,0.019-2.31,0.302-3.436,0.579c-12.572,3.103-25.195,6.023-37.684,9.439
		c-5.598,1.53-6.751,4.017-5.691,9.244C52.7,44.751,104.567,44.751,156.728,44.751z M69.971,15.364
		c3.812-3.537,8.389-4.654,13.351-2.597c4.2,1.741,7.054,4.662,7.671,10.04c-8.312,0-15.912,0-23.914,0
		C65.633,19.427,67.948,17.24,69.971,15.364z"/>
</g>
</svg>
