<?xml version="1.0" encoding="utf-8"?>
<!-- Generator: Adobe Illustrator 16.0.0, SVG Export Plug-In . SVG Version: 6.00 Build 0)  -->
<!DOCTYPE svg PUBLIC "-//W3C//DTD SVG 1.1//EN" "http://www.w3.org/Graphics/SVG/1.1/DTD/svg11.dtd">
<svg version="1.1" id="Layer_1" xmlns="http://www.w3.org/2000/svg" xmlns:xlink="http://www.w3.org/1999/xlink" x="0px" y="0px"
	 width="136.911px" height="114.145px" viewBox="0 0 136.911 114.145" enable-background="new 0 0 136.911 114.145"
	 xml:space="preserve">
<g id="zm0EMk.tif">
	<g>
		<path fill="#90453A" d="M9.222,7.74c15.674,17.684,34.545,27.64,57.469,29.32c0.516-5.015,0.377-9.809,1.571-14.244
			C73.336,3.954,96.409-4.015,111.775,8.001c3.765,2.942,6.786,3.05,10.576,1.618c3.331-1.255,6.597-2.675,9.894-4.022
			c0.369,0.292,0.736,0.586,1.106,0.88c-3.285,4.305-6.573,8.609-10.043,13.155c1.771-0.325,3.853-0.61,5.883-1.101
			c2.169-0.524,4.291-1.243,7.175-1.005c-3.328,3.37-6.85,6.577-9.904,10.18c-1.508,1.776-3.032,4.27-3.066,6.462
			c-0.628,40.563-28.523,73.253-68.717,79.067c-18.46,2.672-36.286-0.464-52.458-10.565c6.929-1.006,13.93-1.279,20.458-3.181
			c6.376-1.856,12.267-5.37,18.264-8.927c-12.151-2.227-20.713-8.105-25.468-20.043c3.947,0,7.275,0,10.604,0
			C13.863,64.863,6.248,56.262,5.465,42.43c3.88,1.052,7.438,2.02,10.997,2.983C5.862,34.401,2.443,22.544,9.222,7.74z"/>
	</g>
</g>
</svg>
